<svg xmlns="http://www.w3.org/2000/svg" viewBox="0 0 200 80" fill="none">
  <defs>
    <linearGradient id="beeGrad" x1="0" y1="0" x2="1" y2="1">
      <stop offset="0%" stop-color="#1f3fff" />
      <stop offset="100%" stop-color="#7bd4a4" />
    </linearGradient>
    <linearGradient id="chartGrad" x1="0" y1="0" x2="1" y2="1">
      <stop offset="0%" stop-color="#00b4ff" />
      <stop offset="100%" stop-color="#ffd166" />
    </linearGradient>
  </defs>
  <circle cx="40" cy="40" r="34" fill="#eaf4ff" />
  <path d="M28 32c0-6 4-10 10-10s10 4 10 10c0 3-1 5-3 7l8 7c1 1 1 3 0 4-1 1-3 1-4 0l-9-7a10 10 0 0 1-12 0l-8 7c-1 1-3 1-4 0-1-1-1-3 0-4l8-7c-2-2-3-4-3-7Z" fill="url(#beeGrad)" />
  <path d="M40 24c-2 0-3 1-3 3 0 2 1 4 3 4s3-2 3-4c0-2-1-3-3-3Z" fill="#0f254f" />
  <path d="M32 28c0-2 2-3 4-3" stroke="#0f254f" stroke-width="3" stroke-linecap="round" />
  <path d="M48 28c0-2 2-3 4-3" stroke="#0f254f" stroke-width="3" stroke-linecap="round" />
  <rect x="72" y="35" width="16" height="24" rx="6" fill="url(#chartGrad)" />
  <rect x="92" y="28" width="16" height="31" rx="6" fill="#38c0ff" />
  <rect x="112" y="20" width="16" height="39" rx="6" fill="#ffd166" />
  <path d="M103 48l12-6" stroke="#1d2635" stroke-width="3" stroke-linecap="round" />
  <path d="M105 42l6 4" stroke="#1d2635" stroke-width="3" stroke-linecap="round" />
  <text x="8" y="74" font-family="Segoe UI, sans-serif" font-size="26" font-weight="800" fill="#14223f">Budget</text>
  <text x="120" y="74" font-family="Segoe UI, sans-serif" font-size="26" font-weight="800" fill="#f8b402">Bee</text>
</svg>